<?xml version="1.0" encoding="UTF-8" standalone="no"?>
<!-- Generator: Adobe Illustrator 16.0.0, SVG Export Plug-In . SVG Version: 6.00 Build 0)  -->

<svg
   xmlns:dc="http://purl.org/dc/elements/1.1/"
   xmlns:cc="http://creativecommons.org/ns#"
   xmlns:rdf="http://www.w3.org/1999/02/22-rdf-syntax-ns#"
   xmlns:svg="http://www.w3.org/2000/svg"
   xmlns="http://www.w3.org/2000/svg"
   xmlns:sodipodi="http://sodipodi.sourceforge.net/DTD/sodipodi-0.dtd"
   xmlns:inkscape="http://www.inkscape.org/namespaces/inkscape"
   version="1.1"
   id="Capa_1"
   x="0px"
   y="0px"
   width="485.211px"
   height="485.21px"
   viewBox="0 0 485.211 485.21"
   style="enable-background:new 0 0 485.211 485.21;"
   xml:space="preserve"
   sodipodi:docname="map_white.svg"
   inkscape:version="0.92.1 r15371"><metadata
     id="metadata41"><rdf:RDF><cc:Work
         rdf:about=""><dc:format>image/svg+xml</dc:format><dc:type
           rdf:resource="http://purl.org/dc/dcmitype/StillImage" /><dc:title></dc:title></cc:Work></rdf:RDF></metadata><defs
     id="defs39" /><sodipodi:namedview
     pagecolor="#ffffff"
     bordercolor="#666666"
     borderopacity="1"
     objecttolerance="10"
     gridtolerance="10"
     guidetolerance="10"
     inkscape:pageopacity="0"
     inkscape:pageshadow="2"
     inkscape:window-width="1920"
     inkscape:window-height="1052"
     id="namedview37"
     showgrid="false"
     inkscape:zoom="0.97277469"
     inkscape:cx="75.098653"
     inkscape:cy="228.13277"
     inkscape:window-x="0"
     inkscape:window-y="4"
     inkscape:window-maximized="1"
     inkscape:current-layer="Capa_1" /><g
     id="g4"
     style="fill:#ffffff"><path
       d="M198.008,313.767l11.252,28.138c-10.897,4.354-21.765,7.672-32.368,9.89l-6.191-29.669   C179.587,320.253,188.767,317.444,198.008,313.767z M107.77,350.109c11.105,3.197,22.806,4.915,34.768,5.092l0.476-30.322   c-9.301-0.153-18.333-1.451-26.861-3.906L107.77,350.109z M346.552,297.184c8.741,1.723,17.268,4.714,25.352,8.887l13.927-26.948   c-10.665-5.479-21.889-9.418-33.412-11.672L346.552,297.184z M283.294,272.309l9.068,28.903c9.264-2.903,18.421-4.737,27.241-5.447   l-2.422-30.209C306.102,266.447,294.7,268.729,283.294,272.309z M234.611,295.113c-3.404,2.133-6.753,4.083-10.041,5.922   l14.75,26.481c3.701-2.082,7.491-4.266,11.28-6.637c5.214-3.229,10.31-6.104,15.313-8.653l-13.773-27.004   C246.457,288.125,240.59,291.412,234.611,295.113z M318.423,106.14c0,12.379-2.968,24.107-8.237,34.415l-67.579,132.374   c0,0-68.114-133.474-68.38-134.033c-4.77-9.892-7.432-21.028-7.432-32.756c0-41.875,33.937-75.814,75.812-75.814   C284.479,30.326,318.423,64.265,318.423,106.14z M288.097,106.14c0-25.114-20.377-45.49-45.49-45.49   c-25.114,0-45.49,20.376-45.49,45.49c0,25.111,20.376,45.487,45.49,45.487C267.72,151.627,288.097,131.251,288.097,106.14z    M394.235,181.954h-71.131l-15.495,30.327h64.77l32.726,98.205l-10.454,11.551c11.136,10.062,16.909,19.336,16.941,19.368   l3.197-1.923l28.343,85.076H42.053l30.387-91.063c1.066,0.741,1.893,1.451,3.078,2.188l16.113-25.646   c-3.614-2.282-6.576-4.532-9.183-6.632l30.388-91.125h64.795c-6.427-12.559-11.491-22.477-15.488-30.327H90.978L0,454.885h485.211   L394.235,181.954z"
       id="path2"
       style="fill:#ffffff" /></g><g
     id="g6" /><g
     id="g8" /><g
     id="g10" /><g
     id="g12" /><g
     id="g14" /><g
     id="g16" /><g
     id="g18" /><g
     id="g20" /><g
     id="g22" /><g
     id="g24" /><g
     id="g26" /><g
     id="g28" /><g
     id="g30" /><g
     id="g32" /><g
     id="g34" /></svg>